<?xml version="1.0" standalone="no"?>
<!DOCTYPE svg PUBLIC "-//W3C//DTD SVG 20010904//EN"
 "https://www.w3.org/TR/2001/REC-SVG-20010904/DTD/svg10.dtd">
<svg version="1.0" xmlns="https://www.w3.org/2000/svg"
 width="700.000000pt" height="700.000000pt" viewBox="0 0 700.000000 700.000000"
 preserveAspectRatio="xMidYMid meet">
<metadata>
Created by potrace 1.11, written by Peter Selinger 2001-2013
</metadata>
<g transform="translate(0.000000,700.000000) scale(0.100000,-0.100000)"
fill="#000000" stroke="none">
<path d="M3480 5992 c-15 -26 -129 -225 -255 -442 -126 -217 -301 -521 -390
-675 -89 -154 -305 -527 -480 -830 -175 -302 -434 -750 -575 -995 -141 -245
-400 -692 -575 -995 -175 -302 -333 -575 -350 -606 l-32 -56 135 -7 c74 -3
215 -6 314 -6 l178 0 0 53 c1 166 60 377 116 414 13 8 123 53 245 98 121 46
239 95 261 110 22 15 41 25 43 23 1 -2 19 -35 38 -74 44 -88 100 -246 133
-378 39 -158 45 -178 49 -175 6 7 65 455 65 495 0 56 -35 95 -117 127 -37 15
-78 35 -91 45 -27 21 -41 74 -42 149 0 60 -59 231 -84 245 -21 12 -34 66 -42
176 -6 76 -4 95 8 110 9 9 19 46 23 82 16 162 53 304 90 348 13 16 52 44 87
63 l63 34 155 0 c150 0 157 -1 213 -29 110 -53 137 -99 171 -285 9 -46 16
-104 16 -130 0 -30 7 -57 20 -76 19 -27 20 -40 14 -125 -7 -103 -15 -134 -44
-165 -10 -11 -35 -64 -54 -119 -29 -79 -36 -113 -36 -172 0 -71 -1 -74 -33
-99 -18 -15 -62 -39 -97 -54 -48 -20 -71 -36 -92 -66 l-28 -40 30 -220 c38
-281 40 -293 50 -275 4 8 15 51 25 95 27 124 93 321 141 422 43 90 56 105 69
83 12 -19 106 -61 305 -135 109 -40 209 -81 223 -90 52 -34 99 -188 113 -373
l7 -92 91 0 c67 1 86 3 74 11 -13 7 -18 23 -18 55 0 62 19 102 74 152 44 40
155 102 183 102 25 0 93 -72 103 -108 5 -21 10 -74 10 -118 0 -64 3 -83 15
-88 24 -9 28 16 23 117 -6 109 -17 133 -98 221 -59 62 -91 117 -89 153 0 14 2
13 9 -4 5 -13 17 -23 26 -23 14 0 16 8 11 53 -2 28 -2 63 2 77 8 29 71 63 105
57 22 -4 19 -6 -39 -23 -27 -9 -30 -14 -33 -57 -2 -36 0 -47 12 -47 9 0 16 12
18 32 2 27 8 33 37 40 41 11 52 3 23 -18 -41 -28 -30 -73 39 -155 33 -40 66
-84 74 -99 8 -15 19 -82 25 -150 13 -154 17 -170 42 -170 15 0 18 5 14 17 -4
9 -11 75 -17 147 -6 72 -16 144 -23 161 -7 16 -41 64 -75 105 -67 82 -80 116
-30 78 100 -76 169 -88 251 -44 l45 24 42 -55 c50 -63 104 -100 160 -109 l41
-7 0 -163 c0 -132 3 -164 14 -164 16 0 26 82 26 227 l0 104 63 67 c34 38 77
85 95 105 18 21 37 35 42 32 6 -3 18 -32 27 -63 15 -47 18 -94 18 -264 l-1
-208 664 0 c591 0 663 2 658 15 -5 14 -212 374 -621 1080 -89 154 -580 1002
-1090 1885 -880 1522 -972 1680 -978 1680 -1 0 -13 -22 -27 -48z m660 -2717
c69 -22 113 -29 235 -35 83 -4 173 -14 200 -20 122 -31 235 -104 284 -184 21
-34 142 -390 161 -475 29 -125 -11 -313 -94 -445 -41 -65 -178 -228 -263 -313
-72 -72 -135 -69 -211 8 -82 83 -82 85 -34 186 48 102 72 204 72 308 0 116 -4
121 -98 127 -97 7 -127 22 -214 105 l-66 65 -21 -47 c-12 -26 -21 -50 -21 -54
0 -21 -70 -86 -120 -111 l-57 -29 -6 -55 c-3 -31 -1 -84 4 -118 5 -35 9 -68 9
-75 0 -6 -20 -23 -45 -37 -24 -15 -50 -36 -56 -48 -14 -26 -6 -177 11 -222 17
-46 4 -51 -104 -38 -164 21 -254 68 -300 161 -27 53 -46 133 -46 193 0 25 -15
76 -39 132 -87 203 -96 335 -34 516 85 250 222 425 388 497 92 40 108 43 245
39 114 -3 148 -8 220 -31z m15 -775 c9 -10 41 -36 70 -56 44 -30 68 -38 137
-48 l83 -12 3 -69 c6 -126 -28 -256 -90 -349 -64 -98 -153 -125 -237 -72 -40
26 -42 29 -27 45 23 25 20 58 -8 82 -14 12 -30 34 -36 50 -10 23 -20 29 -57
35 -55 8 -63 25 -63 139 l0 83 38 23 c52 31 109 87 134 132 25 43 29 44 53 17z"/>
</g>
</svg>
